<mxfile host="65bd71144e">
    <diagram id="xXgdMa4Nx4V9gT-LWfYh" name="Page-1">
        <mxGraphModel dx="832" dy="563" grid="1" gridSize="10" guides="1" tooltips="1" connect="1" arrows="1" fold="1" page="1" pageScale="1" pageWidth="850" pageHeight="1100" math="0" shadow="0">
            <root>
                <mxCell id="0"/>
                <mxCell id="1" parent="0"/>
                <mxCell id="3" value="Actuaci贸n" style="swimlane;whiteSpace=wrap;html=1;" vertex="1" parent="1">
                    <mxGeometry x="210" y="160" width="180" height="130" as="geometry"/>
                </mxCell>
                <mxCell id="4" value="Fecha de inicio: 1 Tiempo&lt;br/&gt;Fecha de fin: 0..1 Tiempo&lt;br/&gt;Tipo: 1 enum Tipo de Actuaci贸n&lt;br&gt;&amp;nbsp;" style="text;html=1;align=center;verticalAlign=middle;resizable=0;points=[];autosize=1;strokeColor=none;fillColor=none;" vertex="1" parent="3">
                    <mxGeometry x="-5" y="40" width="190" height="70" as="geometry"/>
                </mxCell>
                <mxCell id="5" value="Tipo de Actuaci贸n:&lt;br/&gt;Sondeo&lt;br/&gt;Excavaci贸n&lt;br/&gt;Seguimiento&lt;br&gt;" style="text;html=1;align=center;verticalAlign=middle;resizable=0;points=[];autosize=1;strokeColor=none;fillColor=none;" vertex="1" parent="1">
                    <mxGeometry x="500" y="200" width="120" height="70" as="geometry"/>
                </mxCell>
            </root>
        </mxGraphModel>
    </diagram>
</mxfile>